<?xml version="1.0" encoding="utf-8"?>
<!-- Generator: Adobe Illustrator 26.2.1, SVG Export Plug-In . SVG Version: 6.00 Build 0)  -->
<svg version="1.1" id="Layer_1" xmlns="http://www.w3.org/2000/svg" xmlns:xlink="http://www.w3.org/1999/xlink" x="0px" y="0px"
	 viewBox="0 0 100 100" style="enable-background:new 0 0 100 100;" xml:space="preserve">
<style type="text/css">
	.st0{display:none;}
	.st1{fill:none;}
</style>
<rect class="st0" width="100" height="100"/>
<circle cx="50" cy="50" r="6.5"/>
<path class="st1" d="M55,55.6l-0.3-0.5L55,55.6c1.6-1.4,2.5-3.4,2.5-5.6c0-4.2-3.4-7.5-7.5-7.5s-7.5,3.4-7.5,7.5
	c0,2.2,1,4.3,2.5,5.6l0.3-0.5L45,55.6c1.3,1.2,3.1,1.9,5,1.9S53.7,56.8,55,55.6z"/>
<path d="M50,57.9c-1.5,0-2.9-0.5-4.1-1.2L35.7,86.9c4.5,1.7,9.3,2.7,14.3,2.7s9.9-0.9,14.3-2.7L54.1,56.7
	C52.9,57.5,51.5,57.9,50,57.9z"/>
<path d="M56.9,46c0.8,1.3,1,2.7,1,4.1l31.3-6.2c-0.8-4.7-2.3-9.4-4.9-13.7s-5.8-8.1-9.5-11.1l-21,24C55,43.8,56.1,44.7,56.9,46z"/>
<path d="M43.1,46c0.8-1.3,1.8-2.3,3.1-2.9l-21-24c-3.7,3-6.9,6.7-9.5,11.1s-4.1,9-4.9,13.7l31.3,6.2C42.1,48.8,42.4,47.3,43.1,46z"
	/>
</svg>
